<mxfile host="65bd71144e">
    <diagram id="o5cb9e-XUqycXZfPMsj2" name="第 1 页">
        <mxGraphModel dx="2088" dy="2050" grid="1" gridSize="10" guides="1" tooltips="1" connect="1" arrows="1" fold="1" page="1" pageScale="1" pageWidth="827" pageHeight="1169" math="0" shadow="0">
            <root>
                <mxCell id="0"/>
                <mxCell id="1" parent="0"/>
                <mxCell id="7HV7O3oRNIHKVxVkQmYv-7" value="" style="edgeStyle=orthogonalEdgeStyle;rounded=0;orthogonalLoop=1;jettySize=auto;html=1;fontSize=16;strokeColor=#FF6666;" parent="1" source="7HV7O3oRNIHKVxVkQmYv-1" target="7HV7O3oRNIHKVxVkQmYv-6" edge="1">
                    <mxGeometry relative="1" as="geometry"/>
                </mxCell>
                <mxCell id="7HV7O3oRNIHKVxVkQmYv-27" value="" style="edgeStyle=orthogonalEdgeStyle;rounded=0;orthogonalLoop=1;jettySize=auto;html=1;fontSize=12;strokeColor=#FF6666;" parent="1" source="7HV7O3oRNIHKVxVkQmYv-1" edge="1">
                    <mxGeometry relative="1" as="geometry">
                        <mxPoint x="-93.00000000000091" y="300" as="targetPoint"/>
                    </mxGeometry>
                </mxCell>
                <mxCell id="4dRYoXrf8A35SCwMoEDF-23" value="" style="edgeStyle=orthogonalEdgeStyle;rounded=0;orthogonalLoop=1;jettySize=auto;html=1;fontSize=12;strokeColor=#FF6666;" parent="1" source="7HV7O3oRNIHKVxVkQmYv-1" target="4dRYoXrf8A35SCwMoEDF-22" edge="1">
                    <mxGeometry relative="1" as="geometry"/>
                </mxCell>
                <mxCell id="7HV7O3oRNIHKVxVkQmYv-1" value="Home&lt;br style=&quot;font-size: 20px;&quot;&gt;Page" style="whiteSpace=wrap;html=1;aspect=fixed;fontSize=20;fontStyle=1" parent="1" vertex="1">
                    <mxGeometry x="374" y="260" width="80" height="80" as="geometry"/>
                </mxCell>
                <mxCell id="7HV7O3oRNIHKVxVkQmYv-15" style="edgeStyle=orthogonalEdgeStyle;rounded=0;orthogonalLoop=1;jettySize=auto;html=1;exitX=0;exitY=0.5;exitDx=0;exitDy=0;entryX=0.003;entryY=0.87;entryDx=0;entryDy=0;fontSize=12;strokeColor=#33001A;entryPerimeter=0;" parent="1" source="7HV7O3oRNIHKVxVkQmYv-6" target="7HV7O3oRNIHKVxVkQmYv-1" edge="1">
                    <mxGeometry relative="1" as="geometry">
                        <Array as="points">
                            <mxPoint x="330" y="410"/>
                            <mxPoint x="330" y="330"/>
                            <mxPoint x="374" y="330"/>
                        </Array>
                    </mxGeometry>
                </mxCell>
                <mxCell id="7HV7O3oRNIHKVxVkQmYv-16" value="登入成功" style="edgeLabel;html=1;align=center;verticalAlign=middle;resizable=0;points=[];fontSize=12;" parent="7HV7O3oRNIHKVxVkQmYv-15" vertex="1" connectable="0">
                    <mxGeometry x="0.2207" relative="1" as="geometry">
                        <mxPoint as="offset"/>
                    </mxGeometry>
                </mxCell>
                <mxCell id="7HV7O3oRNIHKVxVkQmYv-24" value="" style="edgeStyle=orthogonalEdgeStyle;rounded=0;orthogonalLoop=1;jettySize=auto;html=1;fontSize=12;strokeColor=#FF6666;" parent="1" source="7HV7O3oRNIHKVxVkQmYv-6" target="7HV7O3oRNIHKVxVkQmYv-23" edge="1">
                    <mxGeometry relative="1" as="geometry"/>
                </mxCell>
                <mxCell id="7HV7O3oRNIHKVxVkQmYv-25" value="登入失敗" style="edgeLabel;html=1;align=center;verticalAlign=middle;resizable=0;points=[];fontSize=12;" parent="7HV7O3oRNIHKVxVkQmYv-24" vertex="1" connectable="0">
                    <mxGeometry x="-0.2952" y="1" relative="1" as="geometry">
                        <mxPoint x="-1" y="9" as="offset"/>
                    </mxGeometry>
                </mxCell>
                <mxCell id="7HV7O3oRNIHKVxVkQmYv-6" value="登入" style="ellipse;whiteSpace=wrap;html=1;fontSize=12;" parent="1" vertex="1">
                    <mxGeometry x="386" y="390" width="56" height="40" as="geometry"/>
                </mxCell>
                <mxCell id="7HV7O3oRNIHKVxVkQmYv-22" value="" style="edgeStyle=orthogonalEdgeStyle;rounded=0;orthogonalLoop=1;jettySize=auto;html=1;fontSize=12;strokeColor=#33001A;exitX=0.5;exitY=1;exitDx=0;exitDy=0;" parent="1" source="7HV7O3oRNIHKVxVkQmYv-23" target="7HV7O3oRNIHKVxVkQmYv-21" edge="1">
                    <mxGeometry relative="1" as="geometry">
                        <mxPoint x="414" y="530" as="sourcePoint"/>
                    </mxGeometry>
                </mxCell>
                <mxCell id="4dRYoXrf8A35SCwMoEDF-2" value="" style="edgeStyle=orthogonalEdgeStyle;rounded=0;orthogonalLoop=1;jettySize=auto;html=1;strokeColor=#FF6666;" parent="1" source="7HV7O3oRNIHKVxVkQmYv-21" target="4dRYoXrf8A35SCwMoEDF-1" edge="1">
                    <mxGeometry relative="1" as="geometry"/>
                </mxCell>
                <mxCell id="7HV7O3oRNIHKVxVkQmYv-21" value="設定頁面" style="whiteSpace=wrap;html=1;fontSize=20;fontStyle=1" parent="1" vertex="1">
                    <mxGeometry x="371" y="585" width="86" height="60" as="geometry"/>
                </mxCell>
                <mxCell id="7HV7O3oRNIHKVxVkQmYv-23" value="重設&lt;br&gt;帳號密碼&lt;br&gt;功能" style="ellipse;whiteSpace=wrap;html=1;fontSize=12;" parent="1" vertex="1">
                    <mxGeometry x="371" y="490" width="86" height="50" as="geometry"/>
                </mxCell>
                <mxCell id="4dRYoXrf8A35SCwMoEDF-1" value="設定完成&lt;br style=&quot;font-size: 12px;&quot;&gt;寄送email" style="ellipse;whiteSpace=wrap;html=1;fontSize=12;" parent="1" vertex="1">
                    <mxGeometry x="371" y="680" width="86" height="62.5" as="geometry"/>
                </mxCell>
                <mxCell id="4dRYoXrf8A35SCwMoEDF-5" value="" style="group" parent="1" vertex="1" connectable="0">
                    <mxGeometry x="100" y="130" width="153" height="60" as="geometry"/>
                </mxCell>
                <mxCell id="7HV7O3oRNIHKVxVkQmYv-49" value="付款頁面&lt;br&gt;首頁推播功能" style="whiteSpace=wrap;html=1;fontSize=20;fontStyle=1" parent="4dRYoXrf8A35SCwMoEDF-5" vertex="1">
                    <mxGeometry width="153" height="60" as="geometry"/>
                </mxCell>
                <mxCell id="4dRYoXrf8A35SCwMoEDF-25" value="" style="edgeStyle=orthogonalEdgeStyle;rounded=0;orthogonalLoop=1;jettySize=auto;html=1;fontSize=12;strokeColor=#FF6666;" parent="1" source="4dRYoXrf8A35SCwMoEDF-22" edge="1">
                    <mxGeometry relative="1" as="geometry">
                        <mxPoint x="414" y="70" as="targetPoint"/>
                    </mxGeometry>
                </mxCell>
                <mxCell id="4dRYoXrf8A35SCwMoEDF-22" value="新增會員" style="ellipse;whiteSpace=wrap;html=1;fontSize=12;" parent="1" vertex="1">
                    <mxGeometry x="377" y="150" width="74" height="60" as="geometry"/>
                </mxCell>
                <mxCell id="4dRYoXrf8A35SCwMoEDF-28" value="" style="group" parent="1" vertex="1" connectable="0">
                    <mxGeometry x="1075" y="148.9" width="120" height="60" as="geometry"/>
                </mxCell>
                <mxCell id="7HV7O3oRNIHKVxVkQmYv-38" value="配對成功&lt;br&gt;頁面" style="whiteSpace=wrap;html=1;fontSize=20;fontStyle=1" parent="4dRYoXrf8A35SCwMoEDF-28" vertex="1">
                    <mxGeometry width="120" height="60" as="geometry"/>
                </mxCell>
                <mxCell id="7HV7O3oRNIHKVxVkQmYv-39" value="" style="edgeStyle=orthogonalEdgeStyle;rounded=0;orthogonalLoop=1;jettySize=auto;html=1;fontSize=12;strokeColor=#33001A;" parent="1" source="7HV7O3oRNIHKVxVkQmYv-36" target="7HV7O3oRNIHKVxVkQmYv-38" edge="1">
                    <mxGeometry relative="1" as="geometry"/>
                </mxCell>
                <mxCell id="7HV7O3oRNIHKVxVkQmYv-44" value="喜歡" style="edgeLabel;html=1;align=center;verticalAlign=middle;resizable=0;points=[];fontSize=12;" parent="7HV7O3oRNIHKVxVkQmYv-39" vertex="1" connectable="0">
                    <mxGeometry x="-0.2881" y="1" relative="1" as="geometry">
                        <mxPoint as="offset"/>
                    </mxGeometry>
                </mxCell>
                <mxCell id="7HV7O3oRNIHKVxVkQmYv-42" style="edgeStyle=orthogonalEdgeStyle;rounded=0;orthogonalLoop=1;jettySize=auto;html=1;exitX=0.5;exitY=1;exitDx=0;exitDy=0;entryX=0.524;entryY=0.995;entryDx=0;entryDy=0;fontSize=12;strokeColor=#33001A;entryPerimeter=0;" parent="1" source="7HV7O3oRNIHKVxVkQmYv-36" target="7HV7O3oRNIHKVxVkQmYv-32" edge="1">
                    <mxGeometry relative="1" as="geometry">
                        <mxPoint x="1054" y="389.9599999999999" as="targetPoint"/>
                        <Array as="points">
                            <mxPoint x="1135" y="420"/>
                            <mxPoint x="715" y="420"/>
                        </Array>
                    </mxGeometry>
                </mxCell>
                <mxCell id="7HV7O3oRNIHKVxVkQmYv-43" value="不喜歡" style="edgeLabel;html=1;align=center;verticalAlign=middle;resizable=0;points=[];fontSize=12;" parent="7HV7O3oRNIHKVxVkQmYv-42" vertex="1" connectable="0">
                    <mxGeometry x="-0.1892" relative="1" as="geometry">
                        <mxPoint as="offset"/>
                    </mxGeometry>
                </mxCell>
                <mxCell id="4dRYoXrf8A35SCwMoEDF-30" value="" style="group" parent="1" vertex="1" connectable="0">
                    <mxGeometry x="1090" y="288.9" width="90" height="60" as="geometry"/>
                </mxCell>
                <mxCell id="4dRYoXrf8A35SCwMoEDF-29" value="" style="group" parent="4dRYoXrf8A35SCwMoEDF-30" vertex="1" connectable="0">
                    <mxGeometry width="90" height="60" as="geometry"/>
                </mxCell>
                <mxCell id="7HV7O3oRNIHKVxVkQmYv-36" value="喜歡/不喜歡" style="ellipse;whiteSpace=wrap;html=1;fontSize=12;" parent="4dRYoXrf8A35SCwMoEDF-29" vertex="1">
                    <mxGeometry width="90" height="60" as="geometry"/>
                </mxCell>
                <mxCell id="4dRYoXrf8A35SCwMoEDF-31" value="" style="group" parent="1" vertex="1" connectable="0">
                    <mxGeometry x="610" y="205" width="200" height="190" as="geometry"/>
                </mxCell>
                <mxCell id="7HV7O3oRNIHKVxVkQmYv-32" value="&lt;b&gt;使用者輪播&lt;br&gt;&lt;/b&gt;&lt;br&gt;1.高人氣使用者&lt;br&gt;&lt;br&gt;2.付費推播&lt;br&gt;&lt;br&gt;3.隨機" style="whiteSpace=wrap;html=1;fontSize=20;" parent="4dRYoXrf8A35SCwMoEDF-31" vertex="1">
                    <mxGeometry width="200" height="190" as="geometry"/>
                </mxCell>
                <mxCell id="7HV7O3oRNIHKVxVkQmYv-33" value="" style="edgeStyle=orthogonalEdgeStyle;rounded=0;orthogonalLoop=1;jettySize=auto;html=1;fontSize=20;strokeColor=#FF6666;" parent="1" source="7HV7O3oRNIHKVxVkQmYv-1" target="7HV7O3oRNIHKVxVkQmYv-32" edge="1">
                    <mxGeometry relative="1" as="geometry"/>
                </mxCell>
                <mxCell id="q8O35Rgzeb-cV2ma4oHS-7" value="新增&lt;br&gt;資料庫資料" style="shape=process;whiteSpace=wrap;html=1;backgroundOutline=1;fontSize=15;fillColor=#dae8fc;strokeColor=#6c8ebf;" parent="1" vertex="1">
                    <mxGeometry x="466" y="10" width="120" height="60" as="geometry"/>
                </mxCell>
                <mxCell id="q8O35Rgzeb-cV2ma4oHS-10" value="修改&lt;br&gt;資料庫資料" style="shape=process;whiteSpace=wrap;html=1;backgroundOutline=1;fontSize=15;fillColor=#dae8fc;strokeColor=#6c8ebf;" parent="1" vertex="1">
                    <mxGeometry x="457" y="585" width="120" height="60" as="geometry"/>
                </mxCell>
                <mxCell id="q8O35Rgzeb-cV2ma4oHS-15" style="edgeStyle=orthogonalEdgeStyle;rounded=0;orthogonalLoop=1;jettySize=auto;html=1;exitX=1;exitY=0.599;exitDx=0;exitDy=0;entryX=0;entryY=0.5;entryDx=0;entryDy=0;fontSize=15;exitPerimeter=0;" parent="1" source="7HV7O3oRNIHKVxVkQmYv-32" target="7HV7O3oRNIHKVxVkQmYv-36" edge="1">
                    <mxGeometry relative="1" as="geometry"/>
                </mxCell>
                <mxCell id="q8O35Rgzeb-cV2ma4oHS-13" value="查詢&lt;br&gt;資料庫資料&lt;br&gt;(非使用者主動查詢)" style="shape=process;whiteSpace=wrap;html=1;backgroundOutline=1;fontSize=15;fillColor=#dae8fc;strokeColor=#6c8ebf;" parent="1" vertex="1">
                    <mxGeometry x="810" y="205" width="170" height="190" as="geometry"/>
                </mxCell>
                <mxCell id="q8O35Rgzeb-cV2ma4oHS-29" value="" style="shape=tableRow;horizontal=0;startSize=0;swimlaneHead=0;swimlaneBody=0;fillColor=none;collapsible=0;dropTarget=0;points=[[0,0.5],[1,0.5]];portConstraint=eastwest;top=0;left=0;right=0;bottom=0;fontSize=15;" parent="1" vertex="1">
                    <mxGeometry x="-220.5" y="1018" width="180" height="30" as="geometry"/>
                </mxCell>
                <mxCell id="q8O35Rgzeb-cV2ma4oHS-30" value="" style="shape=partialRectangle;connectable=0;fillColor=none;top=0;left=0;bottom=0;right=0;editable=1;overflow=hidden;fontSize=15;" parent="q8O35Rgzeb-cV2ma4oHS-29" vertex="1">
                    <mxGeometry width="30" height="30" as="geometry">
                        <mxRectangle width="30" height="30" as="alternateBounds"/>
                    </mxGeometry>
                </mxCell>
                <mxCell id="q8O35Rgzeb-cV2ma4oHS-16" value="Users" style="shape=table;startSize=30;container=1;collapsible=1;childLayout=tableLayout;fixedRows=1;rowLines=0;fontStyle=1;align=center;resizeLast=1;fontSize=22;fillColor=#ffff88;strokeColor=#36393d;" parent="1" vertex="1">
                    <mxGeometry x="19.639999999999986" y="-830" width="199.71" height="180" as="geometry">
                        <mxRectangle x="-220.5" y="870" width="130" height="30" as="alternateBounds"/>
                    </mxGeometry>
                </mxCell>
                <mxCell id="q8O35Rgzeb-cV2ma4oHS-17" value="" style="shape=tableRow;horizontal=0;startSize=0;swimlaneHead=0;swimlaneBody=0;fillColor=none;collapsible=0;dropTarget=0;points=[[0,0.5],[1,0.5]];portConstraint=eastwest;top=0;left=0;right=0;bottom=1;fontSize=15;" parent="q8O35Rgzeb-cV2ma4oHS-16" vertex="1">
                    <mxGeometry y="30" width="199.71" height="30" as="geometry"/>
                </mxCell>
                <mxCell id="q8O35Rgzeb-cV2ma4oHS-18" value="PK" style="shape=partialRectangle;connectable=0;fillColor=none;top=0;left=0;bottom=0;right=0;fontStyle=1;overflow=hidden;fontSize=18;" parent="q8O35Rgzeb-cV2ma4oHS-17" vertex="1">
                    <mxGeometry width="48.36000000000013" height="30" as="geometry">
                        <mxRectangle width="48.36000000000013" height="30" as="alternateBounds"/>
                    </mxGeometry>
                </mxCell>
                <mxCell id="q8O35Rgzeb-cV2ma4oHS-19" value="UserID" style="shape=partialRectangle;connectable=0;fillColor=none;top=0;left=0;bottom=0;right=0;align=left;spacingLeft=6;fontStyle=5;overflow=hidden;fontSize=18;" parent="q8O35Rgzeb-cV2ma4oHS-17" vertex="1">
                    <mxGeometry x="48.36000000000013" width="151.34999999999988" height="30" as="geometry">
                        <mxRectangle width="151.34999999999988" height="30" as="alternateBounds"/>
                    </mxGeometry>
                </mxCell>
                <mxCell id="q8O35Rgzeb-cV2ma4oHS-20" value="" style="shape=tableRow;horizontal=0;startSize=0;swimlaneHead=0;swimlaneBody=0;fillColor=none;collapsible=0;dropTarget=0;points=[[0,0.5],[1,0.5]];portConstraint=eastwest;top=0;left=0;right=0;bottom=0;fontSize=15;" parent="q8O35Rgzeb-cV2ma4oHS-16" vertex="1">
                    <mxGeometry y="60" width="199.71" height="30" as="geometry"/>
                </mxCell>
                <mxCell id="q8O35Rgzeb-cV2ma4oHS-21" value="" style="shape=partialRectangle;connectable=0;fillColor=none;top=0;left=0;bottom=0;right=0;editable=1;overflow=hidden;fontSize=15;" parent="q8O35Rgzeb-cV2ma4oHS-20" vertex="1">
                    <mxGeometry width="48.36000000000013" height="30" as="geometry">
                        <mxRectangle width="48.36000000000013" height="30" as="alternateBounds"/>
                    </mxGeometry>
                </mxCell>
                <mxCell id="q8O35Rgzeb-cV2ma4oHS-22" value="gender" style="shape=partialRectangle;connectable=0;fillColor=none;top=0;left=0;bottom=0;right=0;align=left;spacingLeft=6;overflow=hidden;fontSize=18;" parent="q8O35Rgzeb-cV2ma4oHS-20" vertex="1">
                    <mxGeometry x="48.36000000000013" width="151.34999999999988" height="30" as="geometry">
                        <mxRectangle width="151.34999999999988" height="30" as="alternateBounds"/>
                    </mxGeometry>
                </mxCell>
                <mxCell id="q8O35Rgzeb-cV2ma4oHS-23" value="" style="shape=tableRow;horizontal=0;startSize=0;swimlaneHead=0;swimlaneBody=0;fillColor=none;collapsible=0;dropTarget=0;points=[[0,0.5],[1,0.5]];portConstraint=eastwest;top=0;left=0;right=0;bottom=0;fontSize=15;" parent="q8O35Rgzeb-cV2ma4oHS-16" vertex="1">
                    <mxGeometry y="90" width="199.71" height="30" as="geometry"/>
                </mxCell>
                <mxCell id="q8O35Rgzeb-cV2ma4oHS-24" value="" style="shape=partialRectangle;connectable=0;fillColor=none;top=0;left=0;bottom=0;right=0;editable=1;overflow=hidden;fontSize=15;" parent="q8O35Rgzeb-cV2ma4oHS-23" vertex="1">
                    <mxGeometry width="48.36000000000013" height="30" as="geometry">
                        <mxRectangle width="48.36000000000013" height="30" as="alternateBounds"/>
                    </mxGeometry>
                </mxCell>
                <mxCell id="q8O35Rgzeb-cV2ma4oHS-25" value="height" style="shape=partialRectangle;connectable=0;fillColor=none;top=0;left=0;bottom=0;right=0;align=left;spacingLeft=6;overflow=hidden;fontSize=18;" parent="q8O35Rgzeb-cV2ma4oHS-23" vertex="1">
                    <mxGeometry x="48.36000000000013" width="151.34999999999988" height="30" as="geometry">
                        <mxRectangle width="151.34999999999988" height="30" as="alternateBounds"/>
                    </mxGeometry>
                </mxCell>
                <mxCell id="q8O35Rgzeb-cV2ma4oHS-26" value="" style="shape=tableRow;horizontal=0;startSize=0;swimlaneHead=0;swimlaneBody=0;fillColor=none;collapsible=0;dropTarget=0;points=[[0,0.5],[1,0.5]];portConstraint=eastwest;top=0;left=0;right=0;bottom=0;fontSize=15;" parent="q8O35Rgzeb-cV2ma4oHS-16" vertex="1">
                    <mxGeometry y="120" width="199.71" height="30" as="geometry"/>
                </mxCell>
                <mxCell id="q8O35Rgzeb-cV2ma4oHS-27" value="" style="shape=partialRectangle;connectable=0;fillColor=none;top=0;left=0;bottom=0;right=0;editable=1;overflow=hidden;fontSize=15;" parent="q8O35Rgzeb-cV2ma4oHS-26" vertex="1">
                    <mxGeometry width="48.36000000000013" height="30" as="geometry">
                        <mxRectangle width="48.36000000000013" height="30" as="alternateBounds"/>
                    </mxGeometry>
                </mxCell>
                <mxCell id="q8O35Rgzeb-cV2ma4oHS-28" value="weight" style="shape=partialRectangle;connectable=0;fillColor=none;top=0;left=0;bottom=0;right=0;align=left;spacingLeft=6;overflow=hidden;fontSize=18;" parent="q8O35Rgzeb-cV2ma4oHS-26" vertex="1">
                    <mxGeometry x="48.36000000000013" width="151.34999999999988" height="30" as="geometry">
                        <mxRectangle width="151.34999999999988" height="30" as="alternateBounds"/>
                    </mxGeometry>
                </mxCell>
                <mxCell id="q8O35Rgzeb-cV2ma4oHS-43" style="shape=tableRow;horizontal=0;startSize=0;swimlaneHead=0;swimlaneBody=0;fillColor=none;collapsible=0;dropTarget=0;points=[[0,0.5],[1,0.5]];portConstraint=eastwest;top=0;left=0;right=0;bottom=0;fontSize=15;" parent="q8O35Rgzeb-cV2ma4oHS-16" vertex="1">
                    <mxGeometry y="150" width="199.71" height="30" as="geometry"/>
                </mxCell>
                <mxCell id="q8O35Rgzeb-cV2ma4oHS-44" style="shape=partialRectangle;connectable=0;fillColor=none;top=0;left=0;bottom=0;right=0;editable=1;overflow=hidden;fontSize=15;" parent="q8O35Rgzeb-cV2ma4oHS-43" vertex="1">
                    <mxGeometry width="48.36000000000013" height="30" as="geometry">
                        <mxRectangle width="48.36000000000013" height="30" as="alternateBounds"/>
                    </mxGeometry>
                </mxCell>
                <mxCell id="q8O35Rgzeb-cV2ma4oHS-45" value="createTime" style="shape=partialRectangle;connectable=0;fillColor=none;top=0;left=0;bottom=0;right=0;align=left;spacingLeft=6;overflow=hidden;fontSize=18;" parent="q8O35Rgzeb-cV2ma4oHS-43" vertex="1">
                    <mxGeometry x="48.36000000000013" width="151.34999999999988" height="30" as="geometry">
                        <mxRectangle width="151.34999999999988" height="30" as="alternateBounds"/>
                    </mxGeometry>
                </mxCell>
                <mxCell id="q8O35Rgzeb-cV2ma4oHS-46" value="Likes" style="shape=table;startSize=30;container=1;collapsible=1;childLayout=tableLayout;fixedRows=1;rowLines=0;fontStyle=1;align=center;resizeLast=1;fontSize=22;fillColor=#ffff88;strokeColor=#36393d;" parent="1" vertex="1">
                    <mxGeometry x="286.47" y="-830" width="199.71" height="180" as="geometry"/>
                </mxCell>
                <mxCell id="q8O35Rgzeb-cV2ma4oHS-47" value="" style="shape=tableRow;horizontal=0;startSize=0;swimlaneHead=0;swimlaneBody=0;fillColor=none;collapsible=0;dropTarget=0;points=[[0,0.5],[1,0.5]];portConstraint=eastwest;top=0;left=0;right=0;bottom=0;fontSize=15;" parent="q8O35Rgzeb-cV2ma4oHS-46" vertex="1">
                    <mxGeometry y="30" width="199.71" height="30" as="geometry"/>
                </mxCell>
                <mxCell id="q8O35Rgzeb-cV2ma4oHS-48" value="PK,FK1" style="shape=partialRectangle;connectable=0;fillColor=none;top=0;left=0;bottom=0;right=0;fontStyle=1;overflow=hidden;fontSize=18;" parent="q8O35Rgzeb-cV2ma4oHS-47" vertex="1">
                    <mxGeometry width="81.52737752161374" height="30" as="geometry">
                        <mxRectangle width="81.52737752161374" height="30" as="alternateBounds"/>
                    </mxGeometry>
                </mxCell>
                <mxCell id="q8O35Rgzeb-cV2ma4oHS-49" value="UserID" style="shape=partialRectangle;connectable=0;fillColor=none;top=0;left=0;bottom=0;right=0;align=left;spacingLeft=6;fontStyle=5;overflow=hidden;fontSize=18;" parent="q8O35Rgzeb-cV2ma4oHS-47" vertex="1">
                    <mxGeometry x="81.52737752161374" width="118.18262247838626" height="30" as="geometry">
                        <mxRectangle width="118.18262247838626" height="30" as="alternateBounds"/>
                    </mxGeometry>
                </mxCell>
                <mxCell id="q8O35Rgzeb-cV2ma4oHS-50" value="" style="shape=tableRow;horizontal=0;startSize=0;swimlaneHead=0;swimlaneBody=0;fillColor=none;collapsible=0;dropTarget=0;points=[[0,0.5],[1,0.5]];portConstraint=eastwest;top=0;left=0;right=0;bottom=1;fontSize=15;" parent="q8O35Rgzeb-cV2ma4oHS-46" vertex="1">
                    <mxGeometry y="60" width="199.71" height="30" as="geometry"/>
                </mxCell>
                <mxCell id="q8O35Rgzeb-cV2ma4oHS-51" value="PK,FK2" style="shape=partialRectangle;connectable=0;fillColor=none;top=0;left=0;bottom=0;right=0;fontStyle=1;overflow=hidden;fontSize=18;" parent="q8O35Rgzeb-cV2ma4oHS-50" vertex="1">
                    <mxGeometry width="81.52737752161374" height="30" as="geometry">
                        <mxRectangle width="81.52737752161374" height="30" as="alternateBounds"/>
                    </mxGeometry>
                </mxCell>
                <mxCell id="q8O35Rgzeb-cV2ma4oHS-52" value="PhotoID" style="shape=partialRectangle;connectable=0;fillColor=none;top=0;left=0;bottom=0;right=0;align=left;spacingLeft=6;fontStyle=5;overflow=hidden;fontSize=18;" parent="q8O35Rgzeb-cV2ma4oHS-50" vertex="1">
                    <mxGeometry x="81.52737752161374" width="118.18262247838626" height="30" as="geometry">
                        <mxRectangle width="118.18262247838626" height="30" as="alternateBounds"/>
                    </mxGeometry>
                </mxCell>
                <mxCell id="q8O35Rgzeb-cV2ma4oHS-53" value="" style="shape=tableRow;horizontal=0;startSize=0;swimlaneHead=0;swimlaneBody=0;fillColor=none;collapsible=0;dropTarget=0;points=[[0,0.5],[1,0.5]];portConstraint=eastwest;top=0;left=0;right=0;bottom=0;fontSize=15;" parent="q8O35Rgzeb-cV2ma4oHS-46" vertex="1">
                    <mxGeometry y="90" width="199.71" height="30" as="geometry"/>
                </mxCell>
                <mxCell id="q8O35Rgzeb-cV2ma4oHS-54" value="" style="shape=partialRectangle;connectable=0;fillColor=none;top=0;left=0;bottom=0;right=0;editable=1;overflow=hidden;fontSize=15;" parent="q8O35Rgzeb-cV2ma4oHS-53" vertex="1">
                    <mxGeometry width="81.52737752161374" height="30" as="geometry">
                        <mxRectangle width="81.52737752161374" height="30" as="alternateBounds"/>
                    </mxGeometry>
                </mxCell>
                <mxCell id="q8O35Rgzeb-cV2ma4oHS-55" value="sendLike" style="shape=partialRectangle;connectable=0;fillColor=none;top=0;left=0;bottom=0;right=0;align=left;spacingLeft=6;overflow=hidden;fontSize=18;" parent="q8O35Rgzeb-cV2ma4oHS-53" vertex="1">
                    <mxGeometry x="81.52737752161374" width="118.18262247838626" height="30" as="geometry">
                        <mxRectangle width="118.18262247838626" height="30" as="alternateBounds"/>
                    </mxGeometry>
                </mxCell>
                <mxCell id="q8O35Rgzeb-cV2ma4oHS-104" style="shape=tableRow;horizontal=0;startSize=0;swimlaneHead=0;swimlaneBody=0;fillColor=none;collapsible=0;dropTarget=0;points=[[0,0.5],[1,0.5]];portConstraint=eastwest;top=0;left=0;right=0;bottom=0;fontSize=15;" parent="q8O35Rgzeb-cV2ma4oHS-46" vertex="1">
                    <mxGeometry y="120" width="199.71" height="30" as="geometry"/>
                </mxCell>
                <mxCell id="q8O35Rgzeb-cV2ma4oHS-105" style="shape=partialRectangle;connectable=0;fillColor=none;top=0;left=0;bottom=0;right=0;editable=1;overflow=hidden;fontSize=15;" parent="q8O35Rgzeb-cV2ma4oHS-104" vertex="1">
                    <mxGeometry width="81.52737752161374" height="30" as="geometry">
                        <mxRectangle width="81.52737752161374" height="30" as="alternateBounds"/>
                    </mxGeometry>
                </mxCell>
                <mxCell id="q8O35Rgzeb-cV2ma4oHS-106" value="getLike" style="shape=partialRectangle;connectable=0;fillColor=none;top=0;left=0;bottom=0;right=0;align=left;spacingLeft=6;overflow=hidden;fontSize=18;" parent="q8O35Rgzeb-cV2ma4oHS-104" vertex="1">
                    <mxGeometry x="81.52737752161374" width="118.18262247838626" height="30" as="geometry">
                        <mxRectangle width="118.18262247838626" height="30" as="alternateBounds"/>
                    </mxGeometry>
                </mxCell>
                <mxCell id="q8O35Rgzeb-cV2ma4oHS-101" style="shape=tableRow;horizontal=0;startSize=0;swimlaneHead=0;swimlaneBody=0;fillColor=none;collapsible=0;dropTarget=0;points=[[0,0.5],[1,0.5]];portConstraint=eastwest;top=0;left=0;right=0;bottom=0;fontSize=15;" parent="q8O35Rgzeb-cV2ma4oHS-46" vertex="1">
                    <mxGeometry y="150" width="199.71" height="30" as="geometry"/>
                </mxCell>
                <mxCell id="q8O35Rgzeb-cV2ma4oHS-102" style="shape=partialRectangle;connectable=0;fillColor=none;top=0;left=0;bottom=0;right=0;editable=1;overflow=hidden;fontSize=15;" parent="q8O35Rgzeb-cV2ma4oHS-101" vertex="1">
                    <mxGeometry width="81.52737752161374" height="30" as="geometry">
                        <mxRectangle width="81.52737752161374" height="30" as="alternateBounds"/>
                    </mxGeometry>
                </mxCell>
                <mxCell id="q8O35Rgzeb-cV2ma4oHS-103" value="createTime" style="shape=partialRectangle;connectable=0;fillColor=none;top=0;left=0;bottom=0;right=0;align=left;spacingLeft=6;overflow=hidden;fontSize=18;" parent="q8O35Rgzeb-cV2ma4oHS-101" vertex="1">
                    <mxGeometry x="81.52737752161374" width="118.18262247838626" height="30" as="geometry">
                        <mxRectangle width="118.18262247838626" height="30" as="alternateBounds"/>
                    </mxGeometry>
                </mxCell>
                <mxCell id="q8O35Rgzeb-cV2ma4oHS-62" value="Photos" style="shape=table;startSize=30;container=1;collapsible=1;childLayout=tableLayout;fixedRows=1;rowLines=0;fontStyle=1;align=center;resizeLast=1;fontSize=22;fillColor=#ffff88;strokeColor=#36393d;" parent="1" vertex="1">
                    <mxGeometry x="568.29" y="-830" width="269.71" height="150" as="geometry"/>
                </mxCell>
                <mxCell id="q8O35Rgzeb-cV2ma4oHS-66" value="" style="shape=tableRow;horizontal=0;startSize=0;swimlaneHead=0;swimlaneBody=0;fillColor=none;collapsible=0;dropTarget=0;points=[[0,0.5],[1,0.5]];portConstraint=eastwest;top=0;left=0;right=0;bottom=1;fontSize=15;" parent="q8O35Rgzeb-cV2ma4oHS-62" vertex="1">
                    <mxGeometry y="30" width="269.71" height="30" as="geometry"/>
                </mxCell>
                <mxCell id="q8O35Rgzeb-cV2ma4oHS-67" value="PK,FK1" style="shape=partialRectangle;connectable=0;fillColor=none;top=0;left=0;bottom=0;right=0;fontStyle=1;overflow=hidden;fontSize=18;" parent="q8O35Rgzeb-cV2ma4oHS-66" vertex="1">
                    <mxGeometry width="89.71000000000004" height="30" as="geometry">
                        <mxRectangle width="89.71000000000004" height="30" as="alternateBounds"/>
                    </mxGeometry>
                </mxCell>
                <mxCell id="q8O35Rgzeb-cV2ma4oHS-68" value="PhotoID" style="shape=partialRectangle;connectable=0;fillColor=none;top=0;left=0;bottom=0;right=0;align=left;spacingLeft=6;fontStyle=5;overflow=hidden;fontSize=18;" parent="q8O35Rgzeb-cV2ma4oHS-66" vertex="1">
                    <mxGeometry x="89.71000000000004" width="179.99999999999994" height="30" as="geometry">
                        <mxRectangle width="179.99999999999994" height="30" as="alternateBounds"/>
                    </mxGeometry>
                </mxCell>
                <mxCell id="q8O35Rgzeb-cV2ma4oHS-69" value="" style="shape=tableRow;horizontal=0;startSize=0;swimlaneHead=0;swimlaneBody=0;fillColor=none;collapsible=0;dropTarget=0;points=[[0,0.5],[1,0.5]];portConstraint=eastwest;top=0;left=0;right=0;bottom=0;fontSize=15;" parent="q8O35Rgzeb-cV2ma4oHS-62" vertex="1">
                    <mxGeometry y="60" width="269.71" height="30" as="geometry"/>
                </mxCell>
                <mxCell id="q8O35Rgzeb-cV2ma4oHS-70" value="" style="shape=partialRectangle;connectable=0;fillColor=none;top=0;left=0;bottom=0;right=0;editable=1;overflow=hidden;fontSize=15;" parent="q8O35Rgzeb-cV2ma4oHS-69" vertex="1">
                    <mxGeometry width="89.71000000000004" height="30" as="geometry">
                        <mxRectangle width="89.71000000000004" height="30" as="alternateBounds"/>
                    </mxGeometry>
                </mxCell>
                <mxCell id="q8O35Rgzeb-cV2ma4oHS-71" value="imageURL" style="shape=partialRectangle;connectable=0;fillColor=none;top=0;left=0;bottom=0;right=0;align=left;spacingLeft=6;overflow=hidden;fontSize=18;" parent="q8O35Rgzeb-cV2ma4oHS-69" vertex="1">
                    <mxGeometry x="89.71000000000004" width="179.99999999999994" height="30" as="geometry">
                        <mxRectangle width="179.99999999999994" height="30" as="alternateBounds"/>
                    </mxGeometry>
                </mxCell>
                <mxCell id="q8O35Rgzeb-cV2ma4oHS-72" value="" style="shape=tableRow;horizontal=0;startSize=0;swimlaneHead=0;swimlaneBody=0;fillColor=none;collapsible=0;dropTarget=0;points=[[0,0.5],[1,0.5]];portConstraint=eastwest;top=0;left=0;right=0;bottom=0;fontSize=15;" parent="q8O35Rgzeb-cV2ma4oHS-62" vertex="1">
                    <mxGeometry y="90" width="269.71" height="30" as="geometry"/>
                </mxCell>
                <mxCell id="q8O35Rgzeb-cV2ma4oHS-73" value="FK" style="shape=partialRectangle;connectable=0;fillColor=none;top=0;left=0;bottom=0;right=0;editable=1;overflow=hidden;fontSize=18;" parent="q8O35Rgzeb-cV2ma4oHS-72" vertex="1">
                    <mxGeometry width="89.71000000000004" height="30" as="geometry">
                        <mxRectangle width="89.71000000000004" height="30" as="alternateBounds"/>
                    </mxGeometry>
                </mxCell>
                <mxCell id="q8O35Rgzeb-cV2ma4oHS-74" value="userID" style="shape=partialRectangle;connectable=0;fillColor=none;top=0;left=0;bottom=0;right=0;align=left;spacingLeft=6;overflow=hidden;fontSize=18;" parent="q8O35Rgzeb-cV2ma4oHS-72" vertex="1">
                    <mxGeometry x="89.71000000000004" width="179.99999999999994" height="30" as="geometry">
                        <mxRectangle width="179.99999999999994" height="30" as="alternateBounds"/>
                    </mxGeometry>
                </mxCell>
                <mxCell id="q8O35Rgzeb-cV2ma4oHS-88" style="shape=tableRow;horizontal=0;startSize=0;swimlaneHead=0;swimlaneBody=0;fillColor=none;collapsible=0;dropTarget=0;points=[[0,0.5],[1,0.5]];portConstraint=eastwest;top=0;left=0;right=0;bottom=0;fontSize=15;" parent="q8O35Rgzeb-cV2ma4oHS-62" vertex="1">
                    <mxGeometry y="120" width="269.71" height="30" as="geometry"/>
                </mxCell>
                <mxCell id="q8O35Rgzeb-cV2ma4oHS-89" style="shape=partialRectangle;connectable=0;fillColor=none;top=0;left=0;bottom=0;right=0;editable=1;overflow=hidden;fontSize=15;" parent="q8O35Rgzeb-cV2ma4oHS-88" vertex="1">
                    <mxGeometry width="89.71000000000004" height="30" as="geometry">
                        <mxRectangle width="89.71000000000004" height="30" as="alternateBounds"/>
                    </mxGeometry>
                </mxCell>
                <mxCell id="q8O35Rgzeb-cV2ma4oHS-90" value="createTime" style="shape=partialRectangle;connectable=0;fillColor=none;top=0;left=0;bottom=0;right=0;align=left;spacingLeft=6;overflow=hidden;fontSize=18;" parent="q8O35Rgzeb-cV2ma4oHS-88" vertex="1">
                    <mxGeometry x="89.71000000000004" width="179.99999999999994" height="30" as="geometry">
                        <mxRectangle width="179.99999999999994" height="30" as="alternateBounds"/>
                    </mxGeometry>
                </mxCell>
                <mxCell id="q8O35Rgzeb-cV2ma4oHS-96" style="edgeStyle=orthogonalEdgeStyle;rounded=0;orthogonalLoop=1;jettySize=auto;html=1;exitX=1;exitY=0.5;exitDx=0;exitDy=0;fontSize=18;" parent="1" source="q8O35Rgzeb-cV2ma4oHS-17" target="q8O35Rgzeb-cV2ma4oHS-47" edge="1">
                    <mxGeometry relative="1" as="geometry"/>
                </mxCell>
                <mxCell id="q8O35Rgzeb-cV2ma4oHS-97" style="edgeStyle=orthogonalEdgeStyle;rounded=0;orthogonalLoop=1;jettySize=auto;html=1;exitX=0;exitY=0.5;exitDx=0;exitDy=0;fontSize=18;" parent="1" source="q8O35Rgzeb-cV2ma4oHS-66" target="q8O35Rgzeb-cV2ma4oHS-50" edge="1">
                    <mxGeometry relative="1" as="geometry"/>
                </mxCell>
                <mxCell id="q8O35Rgzeb-cV2ma4oHS-99" style="edgeStyle=orthogonalEdgeStyle;rounded=0;orthogonalLoop=1;jettySize=auto;html=1;exitX=0;exitY=0.5;exitDx=0;exitDy=0;entryX=0;entryY=0.5;entryDx=0;entryDy=0;fontSize=18;" parent="1" source="q8O35Rgzeb-cV2ma4oHS-72" target="q8O35Rgzeb-cV2ma4oHS-17" edge="1">
                    <mxGeometry relative="1" as="geometry">
                        <Array as="points">
                            <mxPoint x="528" y="-725"/>
                            <mxPoint x="528" y="-510"/>
                            <mxPoint y="-510"/>
                            <mxPoint y="-785"/>
                        </Array>
                    </mxGeometry>
                </mxCell>
            </root>
        </mxGraphModel>
    </diagram>
</mxfile>